<svg xmlns="http://www.w3.org/2000/svg" width="129.687" height="39.875" viewBox="0 0 129.687 39.875">
  <defs>
    <style>
      .cls-1 {
        fill: #282828;
        stroke: #000;
        stroke-width: 1px;
        fill-rule: evenodd;
      }
    </style>
  </defs>
  <path id="Item" class="cls-1" d="M715.634,593.521a19.515,19.515,0,0,1,.156-2.906,3.511,3.511,0,0,1,.485-1.409,2.612,2.612,0,0,1,.883-0.784,7.861,7.861,0,0,1,1.808-.626v-1.4h-12.02v1.4a9.673,9.673,0,0,1,1.852.669,2.436,2.436,0,0,1,.869.8,3.6,3.6,0,0,1,.47,1.395,20.508,20.508,0,0,1,.142,2.863v24.638a19.321,19.321,0,0,1-.185,3.133,2.762,2.762,0,0,1-.783,1.581,5.841,5.841,0,0,1-2.365,1.011v1.395h12.02v-1.395a8.018,8.018,0,0,1-1.894-.684,2.4,2.4,0,0,1-.883-0.854,3.911,3.911,0,0,1-.427-1.4,21.662,21.662,0,0,1-.128-2.791V593.521Zm8.746,2.791h2.82a25.976,25.976,0,0,1,1.153-3.774,7.8,7.8,0,0,1,1.353-2.307,3.554,3.554,0,0,1,1.61-1.068,7.944,7.944,0,0,1,2.207-.257h3.589v29.167a16.015,16.015,0,0,1-.157,2.592,4.87,4.87,0,0,1-.427,1.4,2.614,2.614,0,0,1-.684.84,3.584,3.584,0,0,1-1.068.555,14.8,14.8,0,0,1-1.509.428v1.395h13.016v-1.395a9.623,9.623,0,0,1-2.05-.641,2.611,2.611,0,0,1-1.04-.912,4.326,4.326,0,0,1-.57-1.58,15.371,15.371,0,0,1-.185-2.678V588.906h3.617a6.669,6.669,0,0,1,2.35.314,4.063,4.063,0,0,1,1.467,1.054,7.675,7.675,0,0,1,1.3,2.164,27.41,27.41,0,0,1,1.239,3.874H755.2V586.4H724.38v9.912Zm36.566-9.912v1.4a9.673,9.673,0,0,1,1.852.669,2.436,2.436,0,0,1,.869.8,3.6,3.6,0,0,1,.47,1.395,20.508,20.508,0,0,1,.142,2.863v24.638a19.321,19.321,0,0,1-.185,3.133,2.762,2.762,0,0,1-.783,1.581,5.841,5.841,0,0,1-2.365,1.011v1.395h26.376l0.541-10h-2.82q-0.57,1.936-.9,2.948a13.07,13.07,0,0,1-.812,1.951,5.489,5.489,0,0,1-1.111,1.524,3.557,3.557,0,0,1-1.5.826,8.693,8.693,0,0,1-2.264.242h-8.859V606.338h6.1a4.281,4.281,0,0,1,2.008.37,3.064,3.064,0,0,1,1.153,1.239,10.368,10.368,0,0,1,.883,2.578h2.678V599.588h-2.678a11.23,11.23,0,0,1-.9,2.677,2.807,2.807,0,0,1-1.182,1.211,4.466,4.466,0,0,1-1.965.356h-6.1V588.906h9a10.075,10.075,0,0,1,1.908.157,3.432,3.432,0,0,1,1.382.584,4.6,4.6,0,0,1,1.068,1.139,10.776,10.776,0,0,1,.94,1.766,24.008,24.008,0,0,1,.883,2.45h2.791v-8.6H760.946Zm74.674,0h-9.627L815,614.114,805,586.4H794.833v1.4a9.684,9.684,0,0,1,1.851.669,2.436,2.436,0,0,1,.869.8,3.6,3.6,0,0,1,.47,1.395,20.508,20.508,0,0,1,.142,2.863v24.638a19.321,19.321,0,0,1-.185,3.133,2.762,2.762,0,0,1-.783,1.581,5.842,5.842,0,0,1-2.364,1.011v1.395h10.4v-1.395a8,8,0,0,1-1.894-.684,2.388,2.388,0,0,1-.883-0.854,3.91,3.91,0,0,1-.428-1.4,21.662,21.662,0,0,1-.128-2.791V607.734q0-4.814-.128-9.371t-0.27-6.3h0.484l10.482,28.683h3.275l11.279-28.227H827.5q-0.171,1.623-.3,6.024t-0.129,8.7v10.909a16.654,16.654,0,0,1-.228,3.3,2.634,2.634,0,0,1-.854,1.509,6,6,0,0,1-2.25.912v1.395H835.62v-1.395a8.018,8.018,0,0,1-1.894-.684,2.4,2.4,0,0,1-.883-0.854,3.911,3.911,0,0,1-.427-1.4,21.478,21.478,0,0,1-.128-2.791V593.521a19.515,19.515,0,0,1,.156-2.906,3.511,3.511,0,0,1,.485-1.409,2.612,2.612,0,0,1,.883-0.784,7.843,7.843,0,0,1,1.808-.626v-1.4Z" transform="translate(-706.438 -585.906)"/>
</svg>
